<?xml version="1.0"?>
<svg xmlns="http://www.w3.org/2000/svg" viewBox="5 23 90 56" width="540" height="336" role="img" aria-label="PadelMatch logo">
  
  <path d="&#xA;      M 12,26&#xA;      L 38,26  A 4,4 0 0,1 42,30  A 4,4 0 0,0 46,34&#xA;      L 54,34  A 4,4 0 0,0 58,30  A 4,4 0 0,1 62,26&#xA;      L 88,26  A 4,4 0 0,1 92,30&#xA;      L 92,70  A 4,4 0 0,1 88,74&#xA;      L 62,74  A 4,4 0 0,1 58,70  A 4,4 0 0,0 54,66&#xA;      L 46,66  A 4,4 0 0,0 42,70  A 4,4 0 0,1 38,74&#xA;      L 12,74  A 4,4 0 0,1 8,70&#xA;      L 8,30   A 4,4 0 0,1 12,26  Z&#xA;      M 12.371,36.597 L 21.926,36.597 L 21.926,63.394 L 12.371,63.394 Z&#xA;      M 26.094,36.601 L 48.024,36.601 L 48.024,47.917 L 26.094,47.917 Z&#xA;      M 52.192,36.601 L 74.122,36.601 L 74.122,47.917 L 52.192,47.917 Z&#xA;      M 26.094,52.081 L 48.024,52.081 L 48.024,63.390 L 26.094,63.390 Z&#xA;      M 52.192,52.081 L 74.122,52.081 L 74.122,63.390 L 52.192,63.390 Z&#xA;      M 78.290,36.593 L 87.845,36.593 L 87.845,63.390 L 78.290,63.390 Z&#xA;      M 12.371,34.515 L 48.024,34.515 L 48.024,36.597 L 12.371,36.597 Z&#xA;      M 52.192,34.515 L 87.845,34.515 L 87.845,36.597 L 52.192,36.597 Z&#xA;      M 12.371,63.394 L 48.024,63.394 L 48.024,65.476 L 12.371,65.476 Z&#xA;      M 52.192,63.394 L 87.845,63.394 L 87.845,65.476 L 52.192,65.476 Z&#xA;    " fill="#111118" fill-rule="evenodd"></path>

  
  <rect x="25.694" y="36.201" width="22.730" height="12.116" fill="#C9E52F"></rect>

  
  <rect x="51.792" y="51.681" width="22.730" height="12.109" fill="#1A56FF"></rect>

  
</svg>