<?xml version="1.0"?>
<svg version="1.1" viewBox="-5 -10 1200 600" id="svg2" width="1200" height="600" xml:space="preserve" xmlns:inkscape="http://www.inkscape.org/namespaces/inkscape" xmlns:sodipodi="http://sodipodi.sourceforge.net/DTD/sodipodi-0.dtd" xmlns="http://www.w3.org/2000/svg" xmlns:svg="http://www.w3.org/2000/svg"><defs id="defs2"><rect x="3.3061223" y="122.32653" width="90.734695" height="14.510204" id="rect3"></rect></defs><namedview id="namedview2" pagecolor="#ffffff" bordercolor="#000000" borderopacity="0.25" showguides="true" showgrid="false"><grid id="grid54" units="px" originx="0" originy="0" spacingx="1" spacingy="1" empcolor="#0099e5" empopacity="0.30196078" color="#0099e5" opacity="0.14901961" empspacing="5" enabled="true" visible="false"></grid></namedview><g id="g65" transform="matrix(12.209389,0,0,12.209389,-21.574144,-296.05067)"><path id="path63" style="stroke-width:0.577135" d="m 11,32 c 0,0 -4,0 -4,4 v 24 c 0,0 -0.2235262,3.967962 3.776472,3.971315 L 45,64 c 3.999999,0.0034 4,-4 4,-4 V 36 c 0,-4 -4,-4 -4,-4 z m 45,0 c -4,0 -4,4 -4,4 v 24 c 0,4 4,4 4,4 h 34 c 0,0 4,0 4,-4 V 36 c 0,0 0,-4 -4,-4 z m 22,2.957031 V 46.765625 H 55 V 35 Z M 10,35 H 20 V 61 H 10 Z m 13,0 H 46 V 46.595703 H 23 Z m 58,0 H 91 V 61 H 81 Z M 23,49.234375 H 46 V 61 l -23,0.04297 z m 32,0.169922 H 78 V 61 H 55 Z"></path><rect style="fill:#000000;stroke-width:3.29385" id="rect64" width="5.0000005" height="26" x="47.5" y="35"></rect></g></svg>