<?xml version="1.0"?>
<svg version="1.1" viewBox="-5.0 -10.0 110.0 135.0" id="svg2" xmlns:inkscape="http://www.inkscape.org/namespaces/inkscape" xmlns:sodipodi="http://sodipodi.sourceforge.net/DTD/sodipodi-0.dtd" xmlns="http://www.w3.org/2000/svg" xmlns:svg="http://www.w3.org/2000/svg">
  <defs id="defs2">
    <rect x="3.3061224" y="122.32653" width="90.734694" height="14.510204" id="rect3"></rect>
  </defs>
  <namedview id="namedview2" pagecolor="#ffffff" bordercolor="#000000" borderopacity="0.25"></namedview>
  <path d="m89.922 26.156h-79.633c-1.1523 0-2.082 0.93359-2.082 2.082v6.2617 0.011719 0.011719 30.945 0.011719 0.011719 6.2734c0 1.1484 0.92969 2.082 2.082 2.082h79.637c1.1523 0 2.082-0.93359 2.082-2.082v-43.527c0-1.1484-0.92969-2.082-2.082-2.082zm-77.551 37.238v-26.797h9.5547v26.797zm13.723-26.793h21.93v11.316h-21.93zm26.098 0h21.93v11.316h-21.93zm-26.098 15.48h21.93v11.309h-21.93zm26.098 11.309v-11.309h21.93v11.309zm26.098-26.797h9.5547v26.797h-9.5547zm9.5547-4.168h-35.652v-2.1055h35.652zm-39.82-2.1055v2.1055l-35.652 0.003907v-2.1055h35.648zm-35.652 37.238h11.613s0.015625 0.003906 0.023437 0.003906h24.012v2.1133h-35.648zm39.816 2.1172v-2.1133h24.016s0.015625-0.003906 0.023437-0.003906h11.613v2.1172z" id="path1"></path>
  <text xml:space="preserve" transform="translate(-5,-10)" id="text3" style="writing-mode:lr-tb;direction:ltr;white-space:pre;shape-inside:url(#rect3);display:inline;fill:#000000"></text>
</svg>