<?xml version="1.0"?>
<svg version="1.1" viewBox="-5 -10 1200 600" id="svg2" width="1200" height="600" xml:space="preserve" xmlns:inkscape="http://www.inkscape.org/namespaces/inkscape" xmlns:sodipodi="http://sodipodi.sourceforge.net/DTD/sodipodi-0.dtd" xmlns="http://www.w3.org/2000/svg" xmlns:svg="http://www.w3.org/2000/svg"><defs id="defs2"><rect x="3.3061223" y="122.32653" width="90.734695" height="14.510204" id="rect3"></rect></defs><namedview id="namedview2" pagecolor="#ffffff" bordercolor="#000000" borderopacity="0.25" showguides="false" showgrid="false"><grid id="grid54" units="px" originx="0" originy="0" spacingx="1" spacingy="1" empcolor="#0099e5" empopacity="0.30196078" color="#0099e5" opacity="0.14901961" empspacing="5" enabled="true" visible="false"></grid><guide position="352.12962,284.92903" orientation="0,-1" id="guide9"></guide><guide position="114.61304,495.17202" orientation="0,-1" id="guide10"></guide><guide position="323.92418,104.82489" orientation="0,-1" id="guide11"></guide><guide position="580.53108,458.70645" orientation="1,0" id="guide12"></guide><guide position="264.19994,427.22228" orientation="1,0" id="guide13"></guide></namedview><g id="g65" transform="matrix(12.209389,0,0,12.209389,-21.574144,-296.05067)"><path id="path63" style="stroke-width:0.577135" d="m 11,32 c 0,0 -4,0 -4,4 v 24 c 0,0 -0.2235262,3.967962 3.776472,3.971315 L 45,64 c 3.999999,0.0034 4,-4 4,-4 V 36 c 0,-4 -4,-4 -4,-4 z m 45,0 c -4,0 -4,4 -4,4 v 24 c 0,4 4,4 4,4 h 34 c 0,0 4,0 4,-4 V 36 c 0,0 0,-4 -4,-4 z m 22,2.957031 V 46.765625 H 55 V 35 Z M 10,35 H 20 V 61 H 10 Z m 13,0 h 23 l -0.0047,11.771437 H 23.0621 Z m 58,0 H 91 V 61 H 81 Z M 23,49.234375 H 46 V 61 l -23,0.04297 z m 32.00473,-0.0058 H 77.9379 L 78,61 H 55 Z"></path><rect style="fill:#000000;stroke-width:3.29385" id="rect64" width="5.0000005" height="26" x="47.5" y="35"></rect><rect style="fill:#c9e52f;fill-opacity:1;stroke:#c9e52f;stroke-width:0;stroke-linecap:butt;stroke-miterlimit:0;stroke-dasharray:none;stroke-opacity:1" id="rect10" width="3.1370947" height="31.988909" x="20.000082" y="31.996748"></rect><rect style="fill:#c9e52f;fill-opacity:1;stroke:#c9e52f;stroke-width:0;stroke-linecap:butt;stroke-miterlimit:0;stroke-dasharray:none;stroke-opacity:1" id="rect10-9" width="3.1034415" height="26.093155" x="-35.041073" y="20.000082" transform="rotate(-90)"></rect><rect style="fill:#c9e52f;fill-opacity:1;stroke:#c9e52f;stroke-width:0;stroke-linecap:butt;stroke-miterlimit:0;stroke-dasharray:none;stroke-opacity:1" id="rect10-9-8" width="3.1034415" height="26.093155" x="-49.424564" y="20.000082" transform="rotate(-90)"></rect><rect style="fill:#c9e52f;fill-opacity:1;stroke:#c9e52f;stroke-width:0;stroke-linecap:butt;stroke-miterlimit:0;stroke-dasharray:none;stroke-opacity:1" id="rect10-2" width="3.1370947" height="14.489186" x="45.968369" y="34.901169"></rect></g></svg>