<?xml version="1.0" encoding="UTF-8"?>
<svg xmlns="http://www.w3.org/2000/svg" viewBox="5 30 90 36" width="512" height="205" role="img" aria-label="PadelMatch logo"><rect x="5" y="30" width="90" height="36" fill="#F5F2E8"/><rect x="22.700" y="34.700" width="23.600" height="12.370" fill="#1A56FF"/><rect x="54.700" y="48.930" width="23.600" height="12.370" fill="#C9E52F"/><path d="m 11,32 c 0,0 -4,0 -4,4 v 24 c 0,0 -0.2235262,3.967962 3.776472,3.971315 L 45,64 c 3.999999,0.0034 4,-4 4,-4 V 36 c 0,-4 -4,-4 -4,-4 z m 45,0 c -4,0 -4,4 -4,4 v 24 c 0,4 4,4 4,4 h 34 c 0,0 4,0 4,-4 V 36 c 0,0 0,-4 -4,-4 z m 22,2.957031 V 46.765625 H 55 V 35 Z M 10,35 H 20 V 61 H 10 Z m 13,0 h 23 l -0.0047,11.771437 H 23.0621 Z m 58,0 H 91 V 61 H 81 Z M 23,49.234375 H 46 V 61 l -23,0.04297 z m 32.00473,-0.0058 H 77.9379 L 78,61 H 55 Z" fill="#111118" fill-rule="evenodd"/><rect x="47.5" y="35" width="5" height="26" fill="#111118"/></svg>